# This file uses meters as units for non-parametric coordinates.

mtllib Bench_02.mtl
g default
v -90.538100 31.969503 -24.865366
v -89.928969 31.969503 -25.117695
v -89.928969 31.360336 -24.865366
v -89.928969 31.108013 -24.256205
v -90.538100 31.360336 -24.256205
v -90.790541 31.969503 -24.256205
v 90.538072 31.969503 -24.865366
v 90.790392 31.969503 -24.256205
v 90.538072 31.360336 -24.256205
v 89.928941 31.108013 -24.256205
v 89.928941 31.360336 -24.865366
v 89.928941 31.969503 -25.117695
v -90.538100 31.969503 24.865370
v -90.790541 31.969503 24.256205
v -90.538100 31.360336 24.256205
v -89.928969 31.108013 24.256205
v -89.928969 31.360336 24.865370
v -89.928969 31.969503 25.117693
v 90.538072 31.969503 24.865370
v 89.928941 31.969503 25.117693
v 89.928941 31.360336 24.865370
v 89.928941 31.108013 24.256205
v 90.538072 31.360336 24.256205
v 90.790392 31.969503 24.256205
v -90.538100 39.471428 24.256205
v -90.790541 38.862263 24.256205
v -90.538100 38.862263 24.865370
v -89.928969 38.862263 25.117693
v -89.928969 39.471428 24.865370
v -89.928969 39.723751 24.256205
v 90.538072 39.471428 24.256205
v 89.928941 39.723751 24.256205
v 89.928941 39.471428 24.865370
v 89.928941 38.862263 25.117693
v 90.538072 38.862263 24.865370
v 90.790392 38.862263 24.256205
v -90.538100 38.862263 -24.865366
v -90.790541 38.862263 -24.256205
v -90.538100 39.471428 -24.256205
v -89.928969 39.723751 -24.256205
v -89.928969 39.471428 -24.865366
v -89.928969 38.862263 -25.117695
v 90.538072 38.862263 -24.865366
v 89.928941 38.862263 -25.117695
v 89.928941 39.471428 -24.865366
v 89.928941 39.723751 -24.256205
v 90.538072 39.471428 -24.256205
v 90.790392 38.862263 -24.256205
v -79.004408 0.861488 -19.065531
v -78.395277 0.861488 -19.317858
v -78.395277 0.252324 -19.065531
v -78.395277 0.000000 -18.456369
v -79.004408 0.252324 -18.456369
v -79.256850 0.861488 -18.456369
v -67.383803 0.861488 -19.065531
v -67.131606 0.861488 -18.456369
v -67.383803 0.252324 -18.456369
v -67.992934 0.000000 -18.456369
v -67.992934 0.252324 -19.065531
v -67.992934 0.861488 -19.317858
v -79.004408 0.861488 19.065527
v -79.256850 0.861488 18.456366
v -79.004408 0.252324 18.456366
v -78.395277 0.000000 18.456366
v -78.395277 0.252324 19.065527
v -78.395277 0.861488 19.317854
v -67.383803 0.861488 19.065527
v -67.992934 0.861488 19.317854
v -67.992934 0.252324 19.065527
v -67.992934 0.000000 18.456366
v -67.383803 0.252324 18.456366
v -67.131606 0.861488 18.456366
v -79.004408 30.855688 18.456366
v -79.256850 30.246523 18.456366
v -79.004408 30.246523 19.065527
v -78.395277 30.246523 19.317854
v -78.395277 30.855688 19.065527
v -78.395277 31.108009 18.456366
v -67.383803 30.855688 18.456366
v -67.992934 31.108009 18.456366
v -67.992934 30.855688 19.065527
v -67.992934 30.246523 19.317854
v -67.383803 30.246523 19.065527
v -67.131606 30.246523 18.456366
v -79.004408 30.246523 -19.065531
v -79.256850 30.246523 -18.456369
v -79.004408 30.855688 -18.456369
v -78.395277 31.108009 -18.456369
v -78.395277 30.855688 -19.065531
v -78.395277 30.246523 -19.317858
v -67.383803 30.246523 -19.065531
v -67.992934 30.246523 -19.317858
v -67.992934 30.855688 -19.065531
v -67.992934 31.108009 -18.456369
v -67.383803 30.855688 -18.456369
v -67.131606 30.246523 -18.456369
v 79.004381 0.861488 -19.065531
v 79.256822 0.861488 -18.456369
v 79.004381 0.252324 -18.456369
v 78.395250 0.000000 -18.456369
v 78.395250 0.252324 -19.065531
v 78.395250 0.861488 -19.317858
v 67.383775 0.861488 -19.065531
v 67.993150 0.861488 -19.317858
v 67.993150 0.252324 -19.065531
v 67.993150 0.000000 -18.456369
v 67.383775 0.252324 -18.456369
v 67.131578 0.861488 -18.456369
v 79.004381 0.861488 19.065527
v 78.395250 0.861488 19.317854
v 78.395250 0.252324 19.065527
v 78.395250 0.000000 18.456366
v 79.004381 0.252324 18.456366
v 79.256822 0.861488 18.456366
v 67.383775 0.861488 19.065527
v 67.131578 0.861488 18.456366
v 67.383775 0.252324 18.456366
v 67.993150 0.000000 18.456366
v 67.993150 0.252324 19.065527
v 67.993150 0.861488 19.317854
v 79.004381 30.855688 18.456366
v 78.395250 31.108009 18.456366
v 78.395250 30.855688 19.065527
v 78.395250 30.246523 19.317854
v 79.004381 30.246523 19.065527
v 79.256822 30.246523 18.456366
v 67.383775 30.855688 18.456366
v 67.131578 30.246523 18.456366
v 67.383775 30.246523 19.065527
v 67.993150 30.246523 19.317854
v 67.993150 30.855688 19.065527
v 67.993150 31.108009 18.456366
v 79.004381 30.246523 -19.065531
v 78.395250 30.246523 -19.317858
v 78.395250 30.855688 -19.065531
v 78.395250 31.108009 -18.456369
v 79.004381 30.855688 -18.456369
v 79.256822 30.246523 -18.456369
v 67.383775 30.246523 -19.065531
v 67.131578 30.246523 -18.456369
v 67.383775 30.855688 -18.456369
v 67.993150 31.108009 -18.456369
v 67.993150 30.855688 -19.065531
v 67.993150 30.246523 -19.317858
v -90.426039 31.472294 -24.753412
v 90.426134 31.472294 -24.753412
v -90.426039 31.472294 24.753412
v 90.426134 31.472294 24.753412
v -90.426039 39.359470 24.753412
v 90.426134 39.359470 24.753412
v -90.426039 39.359470 -24.753412
v 90.426134 39.359470 -24.753412
v -78.892592 0.364281 -18.953577
v -67.495863 0.364281 -18.953577
v -78.892592 0.364281 18.953573
v -67.495863 0.364281 18.953573
v -78.892592 30.743731 18.953573
v -67.495863 30.743731 18.953573
v -78.892592 30.743731 -18.953577
v -67.495863 30.743731 -18.953577
v 78.892564 0.364281 -18.953577
v 67.495836 0.364281 -18.953577
v 78.892564 0.364281 18.953573
v 67.495836 0.364281 18.953573
v 78.892564 30.743731 18.953573
v 67.495836 30.743731 18.953573
v 78.892564 30.743731 -18.953577
v 67.495836 30.743731 -18.953577
vt 0.545262 0.996910
vt 0.542172 0.996910
vt 0.542172 0.961948
vt 0.545262 0.961948
vt 0.542172 1.000000
vt 0.544694 0.999432
vt 0.296103 0.996910
vt 0.296103 0.961948
vt 0.542172 0.959047
vt 0.544947 0.958921
vt 0.296103 1.000000
vt 0.293013 0.996910
vt 0.293013 0.961948
vt 0.296103 0.959047
vt 0.293581 0.999432
vt 0.293328 0.958921
vt 0.542172 0.003090
vt 0.545262 0.003090
vt 0.545262 0.038052
vt 0.542172 0.038052
vt 0.542172 0.000000
vt 0.544694 0.000568
vt 0.542172 0.040953
vt 0.544947 0.041079
vt 0.296103 0.038052
vt 0.296103 0.003090
vt 0.296103 0.000000
vt 0.296103 0.040953
vt 0.293013 0.003090
vt 0.293013 0.038052
vt 0.293581 0.000568
vt 0.293328 0.041079
vt 0.648770 0.430678
vt 0.651860 0.430678
vt 0.651860 0.579728
vt 0.648770 0.579728
vt 0.651860 0.427588
vt 0.649338 0.428156
vt 0.839092 0.430678
vt 0.839092 0.579728
vt 0.651860 0.582818
vt 0.649338 0.582250
vt 0.839092 0.427589
vt 0.842182 0.430678
vt 0.842182 0.579728
vt 0.839092 0.582818
vt 0.841614 0.428156
vt 0.841614 0.582250
vt 0.651859 0.793522
vt 0.648959 0.793522
vt 0.648959 0.644472
vt 0.651859 0.644472
vt 0.651859 0.796423
vt 0.649085 0.796296
vt 0.651859 0.641572
vt 0.649085 0.641698
vt 0.839092 0.644472
vt 0.839092 0.793522
vt 0.839092 0.796423
vt 0.839092 0.641572
vt 0.841992 0.793522
vt 0.841993 0.644472
vt 0.841866 0.796296
vt 0.841866 0.641698
vt 0.651859 0.424498
vt 0.648769 0.424498
vt 0.648770 0.275448
vt 0.651860 0.275448
vt 0.651859 0.427588
vt 0.649337 0.427020
vt 0.651860 0.272359
vt 0.649338 0.272926
vt 0.839092 0.275449
vt 0.839092 0.424499
vt 0.839092 0.427588
vt 0.839092 0.272359
vt 0.842182 0.424499
vt 0.842182 0.275449
vt 0.841614 0.427021
vt 0.841614 0.272927
vt 0.648959 0.061654
vt 0.651860 0.061654
vt 0.651860 0.210704
vt 0.648959 0.210704
vt 0.651860 0.058754
vt 0.649085 0.058880
vt 0.839092 0.061654
vt 0.839092 0.210704
vt 0.651860 0.213605
vt 0.649085 0.213479
vt 0.839092 0.058754
vt 0.841993 0.061654
vt 0.841992 0.210704
vt 0.839092 0.213605
vt 0.841867 0.058880
vt 0.841866 0.213479
vt 0.003090 0.956147
vt 0.000000 0.956147
vt 0.000000 0.043853
vt 0.003090 0.043853
vt 0.003090 0.959237
vt 0.000568 0.958669
vt 0.003090 0.040763
vt 0.000568 0.041331
vt 0.249160 0.043853
vt 0.249160 0.956147
vt 0.249160 0.959237
vt 0.249160 0.040763
vt 0.252249 0.956147
vt 0.252249 0.043853
vt 0.251681 0.958669
vt 0.251681 0.041331
vt 0.296103 0.956147
vt 0.542172 0.956147
vt 0.293202 0.956147
vt 0.296103 0.043853
vt 0.542172 0.043853
vt 0.545073 0.956147
vt 0.293202 0.043853
vt 0.545073 0.043853
vt 0.651859 0.852087
vt 0.648769 0.852087
vt 0.648769 0.799323
vt 0.651859 0.799323
vt 0.651859 0.855176
vt 0.649337 0.854609
vt 0.839092 0.799323
vt 0.839092 0.852087
vt 0.839092 0.855176
vt 0.842182 0.852087
vt 0.842182 0.799323
vt 0.841614 0.854608
vt 0.839092 0.585908
vt 0.651860 0.585908
vt 0.842182 0.585908
vt 0.841614 0.583386
vt 0.839092 0.638671
vt 0.651859 0.638671
vt 0.648770 0.585908
vt 0.649338 0.583386
vt 0.842182 0.638671
vt 0.648770 0.638671
vt 0.651859 0.003090
vt 0.651859 0.000000
vt 0.839092 0.000000
vt 0.839092 0.003090
vt 0.648770 0.003090
vt 0.649338 0.000568
vt 0.842182 0.003090
vt 0.841614 0.000568
vt 0.839092 0.055853
vt 0.651860 0.055853
vt 0.648770 0.055853
vt 0.842182 0.055853
vt 0.839092 0.269269
vt 0.651860 0.269269
vt 0.842182 0.269269
vt 0.841614 0.271791
vt 0.648770 0.269269
vt 0.649338 0.271791
vt 0.651860 0.216506
vt 0.839092 0.216505
vt 0.842182 0.216505
vt 0.648770 0.216506
vt 0.582936 0.956147
vt 0.582936 0.959237
vt 0.547973 0.959237
vt 0.547973 0.956147
vt 0.586025 0.956147
vt 0.585458 0.958669
vt 0.547973 0.043853
vt 0.582936 0.043853
vt 0.586025 0.043853
vt 0.582936 0.040763
vt 0.547973 0.040763
vt 0.585458 0.041331
vt 0.255339 0.959237
vt 0.255339 0.956147
vt 0.290301 0.956147
vt 0.290301 0.959237
vt 0.252817 0.958669
vt 0.255339 0.043853
vt 0.290301 0.043853
vt 0.255339 0.040763
vt 0.290301 0.040763
vt 0.252817 0.041331
vt 0.593295 0.793522
vt 0.590205 0.793522
vt 0.590205 0.644472
vt 0.593295 0.644472
vt 0.593295 0.796612
vt 0.590773 0.796044
vt 0.593295 0.641382
vt 0.590773 0.641950
vt 0.646058 0.644472
vt 0.646058 0.793522
vt 0.646058 0.796612
vt 0.646058 0.641382
vt 0.900746 0.793522
vt 0.897656 0.793522
vt 0.897657 0.644472
vt 0.900747 0.644472
vt 0.897656 0.796612
vt 0.900178 0.796044
vt 0.844893 0.793522
vt 0.844893 0.644472
vt 0.897657 0.641383
vt 0.900179 0.641950
vt 0.844893 0.796612
vt 0.844893 0.641382
vt 0.590205 0.061654
vt 0.593295 0.061654
vt 0.593295 0.210704
vt 0.590205 0.210704
vt 0.593295 0.058564
vt 0.590773 0.059132
vt 0.646058 0.061654
vt 0.646058 0.210704
vt 0.593295 0.213794
vt 0.590773 0.213226
vt 0.646058 0.058564
vt 0.646058 0.213794
vt 0.897658 0.061655
vt 0.900747 0.061655
vt 0.900746 0.210705
vt 0.897656 0.210705
vt 0.897658 0.058565
vt 0.900179 0.059133
vt 0.897656 0.213795
vt 0.900178 0.213227
vt 0.844893 0.210704
vt 0.844894 0.061655
vt 0.844894 0.058565
vt 0.844893 0.213794
vn -0.001358 -0.033579 -0.999435
vn -0.706889 -0.023000 -0.706951
vn -0.706889 0.022999 -0.706950
vn -0.001358 0.033579 -0.999435
vn -0.999426 -0.033505 -0.004993
vn -0.999426 0.033505 -0.004993
vn -0.001392 -0.999986 -0.005131
vn -0.000935 -0.707106 -0.707107
vn 0.000935 -0.707107 -0.707106
vn 0.001392 -0.999986 -0.005131
vn 0.001358 -0.033579 -0.999435
vn -0.707069 -0.707136 -0.003446
vn -0.707071 -0.707135 0.003446
vn -0.999426 -0.033505 0.004993
vn -0.001392 -0.999986 0.005131
vn 0.999427 -0.033484 -0.004991
vn 0.706935 -0.022984 -0.706905
vn 0.706936 0.022985 -0.706904
vn 0.999427 0.033484 -0.004991
vn 0.001358 0.033579 -0.999435
vn 0.707135 -0.707070 -0.003445
vn 0.707135 -0.707070 0.003445
vn 0.001392 -0.999986 0.005131
vn 0.999427 -0.033484 0.004991
vn -0.706889 -0.022992 0.706951
vn -0.706889 0.022988 0.706950
vn -0.999426 0.033505 0.004993
vn -0.001358 -0.033579 0.999435
vn -0.001358 0.033579 0.999435
vn -0.000935 -0.707105 0.707108
vn 0.000935 -0.707106 0.707107
vn 0.001358 -0.033579 0.999435
vn 0.706936 -0.022979 0.706904
vn 0.706935 0.022981 0.706905
vn 0.001358 0.033579 0.999435
vn 0.999427 0.033484 0.004991
vn -0.707070 0.707135 0.003445
vn -0.707069 0.707136 -0.003445
vn -0.001392 0.999986 0.005131
vn -0.001392 0.999986 -0.005131
vn -0.000935 0.707106 0.707107
vn 0.000935 0.707107 0.707106
vn 0.001392 0.999986 0.005131
vn 0.707134 0.707071 0.003445
vn 0.707134 0.707071 -0.003445
vn 0.001392 0.999986 -0.005131
vn -0.000935 0.707107 -0.707106
vn 0.000935 0.707108 -0.707105
vn -0.022754 -0.008252 -0.999707
vn -0.707061 -0.005655 -0.707130
vn -0.707061 0.005653 -0.707130
vn -0.022754 0.008252 -0.999707
vn -0.999943 -0.008371 -0.006681
vn -0.999943 0.008371 -0.006681
vn -0.022785 -0.999719 -0.006596
vn -0.015545 -0.707017 -0.707025
vn 0.015546 -0.707015 -0.707027
vn 0.022785 -0.999719 -0.006596
vn 0.022754 -0.008252 -0.999707
vn -0.707045 -0.707154 -0.004514
vn -0.707046 -0.707154 0.004514
vn -0.999943 -0.008371 0.006681
vn -0.022785 -0.999719 0.006596
vn 0.999943 -0.008357 -0.006674
vn 0.707162 -0.005654 -0.707029
vn 0.707161 0.005655 -0.707030
vn 0.999943 0.008357 -0.006674
vn 0.022754 0.008252 -0.999707
vn 0.707219 -0.706980 -0.004515
vn 0.707218 -0.706981 0.004514
vn 0.022785 -0.999719 0.006596
vn 0.999943 -0.008357 0.006674
vn -0.707061 -0.005653 0.707130
vn -0.707061 0.005655 0.707130
vn -0.999943 0.008371 0.006681
vn -0.022754 -0.008252 0.999707
vn -0.022754 0.008252 0.999707
vn -0.015547 -0.707017 0.707026
vn 0.015545 -0.707015 0.707027
vn 0.022754 -0.008252 0.999707
vn 0.707161 -0.005655 0.707030
vn 0.707162 0.005654 0.707029
vn 0.022754 0.008252 0.999707
vn 0.999943 0.008357 0.006674
vn -0.707044 0.707155 0.004514
vn -0.707045 0.707154 -0.004514
vn -0.022784 0.999719 0.006596
vn -0.022784 0.999719 -0.006596
vn -0.015545 0.707019 0.707024
vn 0.015546 0.707017 0.707026
vn 0.022784 0.999719 0.006596
vn 0.707219 0.706980 0.004515
vn 0.707218 0.706981 -0.004514
vn 0.022784 0.999719 -0.006596
vn -0.015547 0.707018 -0.707024
vn 0.015545 0.707017 -0.707026
vn 0.999943 -0.008371 -0.006681
vn 0.707061 -0.005652 -0.707130
vn 0.707061 0.005651 -0.707130
vn 0.999943 0.008371 -0.006681
vn 0.022755 -0.008251 -0.999707
vn 0.022755 0.008251 -0.999707
vn 0.022786 -0.999719 -0.006596
vn 0.707045 -0.707154 -0.004514
vn 0.707046 -0.707153 0.004514
vn 0.022786 -0.999719 0.006596
vn 0.999943 -0.008371 0.006681
vn 0.015547 -0.707020 -0.707023
vn -0.015547 -0.707021 -0.707022
vn -0.022754 -0.008252 -0.999707
vn -0.022785 -0.999719 -0.006596
vn -0.707061 -0.005653 -0.707130
vn -0.707061 0.005653 -0.707130
vn -0.022754 0.008252 -0.999707
vn -0.999943 -0.008364 -0.006674
vn -0.999943 0.008364 -0.006674
vn -0.707046 -0.707153 -0.004515
vn -0.707046 -0.707153 0.004514
vn -0.999943 -0.008364 0.006674
vn -0.022785 -0.999719 0.006596
vn 0.022755 -0.008251 0.999707
vn 0.707061 -0.005651 0.707130
vn 0.707061 0.005652 0.707130
vn 0.022755 0.008251 0.999707
vn 0.999943 0.008371 0.006681
vn 0.015546 -0.707020 0.707023
vn -0.015545 -0.707021 0.707022
vn -0.022754 -0.008252 0.999707
vn -0.707061 -0.005653 0.707130
vn -0.707061 0.005653 0.707130
vn -0.999943 0.008364 0.006674
vn -0.022754 0.008252 0.999707
vn 0.022785 0.999719 0.006596
vn 0.707045 0.707154 0.004514
vn 0.707045 0.707154 -0.004514
vn 0.022785 0.999719 -0.006596
vn 0.015547 0.707020 0.707023
vn -0.015547 0.707021 0.707022
vn -0.022785 0.999719 0.006596
vn -0.707046 0.707153 0.004515
vn -0.707046 0.707153 -0.004514
vn -0.022785 0.999719 -0.006596
vn 0.015546 0.707020 -0.707023
vn -0.015545 0.707021 -0.707022
vn -0.577292 -0.577415 -0.577344
vn 0.577350 -0.577381 -0.577320
vn -0.577351 -0.577294 0.577406
vn 0.577356 -0.577374 0.577321
vn -0.577379 0.577254 0.577418
vn 0.577339 0.577405 0.577307
vn -0.577301 0.577402 -0.577347
vn 0.577343 0.577398 -0.577310
vn -0.577356 -0.577362 -0.577333
vn 0.577403 -0.577281 -0.577367
vn -0.577392 -0.577307 0.577351
vn 0.577374 -0.577321 0.577356
vn -0.577355 0.577362 0.577334
vn 0.577402 0.577281 0.577368
vn -0.577392 0.577307 -0.577352
vn 0.577373 0.577321 -0.577357
vn 0.577378 -0.577320 -0.577353
vn -0.577256 -0.577379 -0.577416
vn 0.577397 -0.577292 0.577362
vn -0.577255 -0.577380 0.577416
vn 0.577377 0.577320 0.577354
vn -0.577255 0.577380 0.577416
vn 0.577395 0.577292 -0.577363
vn -0.577255 0.577380 -0.577416
s 1
g Bench_02 All1
usemtl lambert2SG
f 2/165/1 1/166/2 37/167/3 42/168/4
f 1/1/2 6/2/5 38/3/6 37/4/3
f 4/97/7 3/98/8 11/99/9 10/100/10
f 3/169/8 2/165/1 12/172/11 11/173/9
f 6/2/5 5/5/12 15/11/13 14/7/14
f 5/101/12 4/97/7 16/106/15 15/107/13
f 8/17/16 7/18/17 43/19/18 48/20/19
f 7/174/17 12/172/11 44/171/20 43/175/18
f 10/100/10 9/103/21 23/108/22 22/105/23
f 9/21/21 8/17/16 24/26/24 23/27/22
f 14/7/14 13/12/25 27/13/26 26/8/27
f 13/177/25 18/178/28 28/179/29 27/180/26
f 18/178/28 17/109/30 21/110/31 20/182/32
f 17/109/30 16/106/15 22/105/23 21/110/31
f 20/182/32 19/184/33 35/185/34 34/183/35
f 19/29/33 24/26/24 36/25/36 35/30/34
f 26/8/27 25/14/37 39/9/38 38/3/6
f 25/14/37 30/113/39 40/114/40 39/9/38
f 30/113/39 29/115/41 33/119/42 32/116/43
f 29/115/41 28/179/29 34/183/35 33/119/42
f 32/116/43 31/28/44 47/23/45 46/117/46
f 31/28/44 36/25/36 48/20/19 47/23/45
f 42/168/4 41/118/47 45/120/48 44/171/20
f 41/118/47 40/114/40 46/117/46 45/120/48
s 4
f 50/187/49 49/188/50 85/189/51 90/190/52
f 49/33/50 54/34/53 86/35/54 85/36/51
f 52/121/55 51/122/56 59/123/57 58/124/58
f 51/191/56 50/187/49 60/196/59 59/197/57
f 54/34/53 53/37/60 63/43/61 62/39/62
f 53/125/60 52/121/55 64/128/63 63/129/61
f 56/49/64 55/50/65 91/51/66 96/52/67
f 55/50/65 60/196/59 92/195/68 91/51/66
f 58/124/58 57/53/69 71/59/70 70/127/71
f 57/53/69 56/49/64 72/58/72 71/59/70
f 62/39/62 61/44/73 75/45/74 74/40/75
f 61/199/73 66/200/76 76/201/77 75/202/74
f 66/200/76 65/203/78 69/209/79 68/205/80
f 65/130/78 64/128/63 70/127/71 69/131/79
f 68/205/80 67/61/81 83/62/82 82/206/83
f 67/61/81 72/58/72 84/57/84 83/62/82
f 74/40/75 73/46/85 87/41/86 86/35/54
f 73/46/85 78/133/87 88/134/88 87/41/86
f 78/133/87 77/135/89 81/141/90 80/137/91
f 77/207/89 76/201/77 82/206/83 81/210/90
f 80/137/91 79/60/92 95/55/93 94/138/94
f 79/60/92 84/57/84 96/52/67 95/55/93
f 90/190/52 89/193/95 93/198/96 92/195/68
f 89/139/95 88/134/88 94/138/94 93/142/96
s 7
f 98/65/97 97/66/98 133/67/99 138/68/100
f 97/211/98 102/212/101 134/213/102 133/214/99
f 100/143/103 99/144/104 113/145/105 112/146/106
f 99/69/104 98/65/97 114/74/107 113/75/105
f 102/212/101 101/215/108 105/221/109 104/217/110
f 101/147/108 100/143/103 106/152/111 105/153/109
f 104/217/110 103/81/112 139/84/113 144/218/114
f 103/81/112 108/82/115 140/83/116 139/84/113
f 108/82/115 107/85/117 117/91/118 116/87/119
f 107/85/117 106/152/111 118/151/120 117/91/118
f 110/223/121 109/224/122 125/225/123 124/226/124
f 109/77/122 114/74/107 126/73/125 125/78/123
f 112/146/106 111/149/126 119/154/127 118/151/120
f 111/227/126 110/223/121 120/232/128 119/233/127
f 116/87/119 115/92/129 129/93/130 128/88/131
f 115/92/129 120/232/128 130/231/132 129/93/130
f 122/155/133 121/76/134 137/71/135 136/156/136
f 121/76/134 126/73/125 138/68/100 137/71/135
f 124/226/124 123/229/137 131/234/138 130/231/132
f 123/157/137 122/155/133 132/162/139 131/163/138
f 128/88/131 127/94/140 141/89/141 140/83/116
f 127/94/140 132/162/139 142/161/142 141/89/141
f 136/156/136 135/159/143 143/164/144 142/161/142
f 135/219/143 134/213/102 144/218/114 143/222/144
s 1
f 4/97/7 10/100/10 22/105/23 16/106/15
f 18/178/28 20/182/32 34/183/35 28/179/29
f 30/113/39 32/116/43 46/117/46 40/114/40
f 42/168/4 44/171/20 12/172/11 2/165/1
f 8/17/16 48/20/19 36/25/36 24/26/24
f 38/3/6 6/2/5 14/7/14 26/8/27
s 4
f 52/121/55 58/124/58 70/127/71 64/128/63
f 66/200/76 68/205/80 82/206/83 76/201/77
f 78/133/87 80/137/91 94/138/94 88/134/88
f 90/190/52 92/195/68 60/196/59 50/187/49
f 56/49/64 96/52/67 84/57/84 72/58/72
f 86/35/54 54/34/53 62/39/62 74/40/75
s 7
f 100/143/103 112/146/106 118/151/120 106/152/111
f 110/223/121 124/226/124 130/231/132 120/232/128
f 122/155/133 136/156/136 142/161/142 132/162/139
f 134/213/102 102/212/101 104/217/110 144/218/114
f 108/82/115 116/87/119 128/88/131 140/83/116
f 138/68/100 126/73/125 114/74/107 98/65/97
s 1
f 5/5/12 6/2/5 1/1/2 145/6/145
f 1/166/2 2/165/1 3/169/8 145/170/145
f 3/98/8 4/97/7 5/101/12 145/102/145
f 11/173/9 12/172/11 7/174/17 146/176/146
f 7/18/17 8/17/16 9/21/21 146/22/146
f 9/103/21 10/100/10 11/99/9 146/104/146
f 17/109/30 18/178/28 13/177/25 147/181/147
f 13/12/25 14/7/14 15/11/13 147/15/147
f 15/107/13 16/106/15 17/109/30 147/111/147
f 23/27/22 24/26/24 19/29/33 148/31/148
f 19/184/33 20/182/32 21/110/31 148/186/148
f 21/110/31 22/105/23 23/108/22 148/112/148
f 29/115/41 30/113/39 25/14/37 149/16/149
f 25/14/37 26/8/27 27/13/26 149/16/149
f 27/180/26 28/179/29 29/115/41 149/16/149
f 35/30/34 36/25/36 31/28/44 150/32/150
f 31/28/44 32/116/43 33/119/42 150/32/150
f 33/119/42 34/183/35 35/185/34 150/32/150
f 41/118/47 42/168/4 37/167/3 151/10/151
f 37/4/3 38/3/6 39/9/38 151/10/151
f 39/9/38 40/114/40 41/118/47 151/10/151
f 47/23/45 48/20/19 43/19/18 152/24/152
f 43/175/18 44/171/20 45/120/48 152/24/152
f 45/120/48 46/117/46 47/23/45 152/24/152
s 4
f 53/37/60 54/34/53 49/33/50 153/38/153
f 49/188/50 50/187/49 51/191/56 153/192/153
f 51/122/56 52/121/55 53/125/60 153/126/153
f 59/197/57 60/196/59 55/50/65 154/54/154
f 55/50/65 56/49/64 57/53/69 154/54/154
f 57/53/69 58/124/58 59/123/57 154/54/154
f 65/203/78 66/200/76 61/199/73 155/204/155
f 61/44/73 62/39/62 63/43/61 155/47/155
f 63/129/61 64/128/63 65/130/78 155/132/155
f 71/59/70 72/58/72 67/61/81 156/63/156
f 67/61/81 68/205/80 69/209/79 156/63/156
f 69/131/79 70/127/71 71/59/70 156/63/156
f 77/135/89 78/133/87 73/46/85 157/136/157
f 73/46/85 74/40/75 75/45/74 157/48/157
f 75/202/74 76/201/77 77/207/89 157/208/157
f 83/62/82 84/57/84 79/60/92 158/64/158
f 79/60/92 80/137/91 81/141/90 158/64/158
f 81/210/90 82/206/83 83/62/82 158/64/158
f 89/193/95 90/190/52 85/189/51 159/194/159
f 85/36/51 86/35/54 87/41/86 159/42/159
f 87/41/86 88/134/88 89/139/95 159/140/159
f 95/55/93 96/52/67 91/51/66 160/56/160
f 91/51/66 92/195/68 93/198/96 160/56/160
f 93/142/96 94/138/94 95/55/93 160/56/160
s 7
f 101/215/108 102/212/101 97/211/98 161/216/161
f 97/66/98 98/65/97 99/69/104 161/70/161
f 99/144/104 100/143/103 101/147/108 161/148/161
f 107/85/117 108/82/115 103/81/112 162/86/162
f 103/81/112 104/217/110 105/221/109 162/86/162
f 105/153/109 106/152/111 107/85/117 162/86/162
f 113/75/105 114/74/107 109/77/122 163/79/163
f 109/224/122 110/223/121 111/227/126 163/228/163
f 111/149/126 112/146/106 113/145/105 163/150/163
f 119/233/127 120/232/128 115/92/129 164/95/164
f 115/92/129 116/87/119 117/91/118 164/95/164
f 117/91/118 118/151/120 119/154/127 164/95/164
f 125/78/123 126/73/125 121/76/134 165/80/165
f 121/76/134 122/155/133 123/157/137 165/158/165
f 123/229/137 124/226/124 125/225/123 165/230/165
f 131/163/138 132/162/139 127/94/140 166/96/166
f 127/94/140 128/88/131 129/93/130 166/96/166
f 129/93/130 130/231/132 131/234/138 166/96/166
f 137/71/135 138/68/100 133/67/99 167/72/167
f 133/214/99 134/213/102 135/219/143 167/220/167
f 135/159/143 136/156/136 137/71/135 167/160/167
f 143/222/144 144/218/114 139/84/113 168/90/168
f 139/84/113 140/83/116 141/89/141 168/90/168
f 141/89/141 142/161/142 143/164/144 168/90/168
